# xmcd
#
# Track frame offsets:
# 150
# 19755
# 31778
# 43817
# 51405
# 68495
# 82006
# 97868
# 119652
# 133644
# 144077
# 155165
# 179490
#
# Disc length: 2563 seconds
#
# Revision: 1
# Processed by: cddbd v1.5.2PL0 Copyright (c) Steve Scherf et al.
# Submitted via: CedeCatalogueitor 2.6.0.6 http://personales.ya.com/cdcatalogueitor
#
DISCID=af0a010d
DTITLE=The Sunday Drivers - The End Of Maiden Trip
DYEAR=1900
DGENRE=
TTITLE0=My Plan
TTITLE1=I
TTITLE2=Anervilla
TTITLE3=Everghing Reminds Me Of You
TTITLE4=Specially
TTITLE5=A Mircle
TTITLE6=So What
TTITLE7=To Se The Animals
TTITLE8=Hold On To Love
TTITLE9=Passing You By 
TTITLE10=Smile
TTITLE11=Kon
TTITLE12=The End Of Maiden Trip
EXTD=
EXTT0=
EXTT1=
EXTT2=
EXTT3=
EXTT4=
EXTT5=
EXTT6=
EXTT7=
EXTT8=
EXTT9=
EXTT10=
EXTT11=
EXTT12=
PLAYORDER=
